<svg width="50" height="50" viewBox="0 0 50 50" fill="none" xmlns="http://www.w3.org/2000/svg">
<mask id="mask0_31_176" style="mask-type:alpha" maskUnits="userSpaceOnUse" x="0" y="0" width="50" height="50">
<circle cx="25" cy="25" r="23.5" fill="black" stroke="black" stroke-width="3"/>
</mask>
<g mask="url(#mask0_31_176)">
<circle cx="25" cy="25" r="23.5" fill="black" stroke="black" stroke-width="3"/>
<path d="M10 6.5C25 -3.99997 45 2.50002 48.5 24" stroke="white" stroke-width="4"/>
<path d="M38.8024 43.0859C28.5 55 1.80237 45.5859 1.80237 26.0859" stroke="white" stroke-width="4"/>
<path d="M38.32 10.68V11.48C37.52 11.64 36.9067 11.92 36.48 12.32C36.08 12.72 35.8133 13.3467 35.68 14.2C35.5467 15.0267 35.48 16.2 35.48 17.72V39C35.08 38.9467 34.64 38.92 34.16 38.92C33.7067 38.92 33.3017 38.8667 32.7683 38.92L14.96 19.64V31.16C14.96 32.9467 15.0267 34.32 15.16 35.28C15.32 36.2133 15.68 36.8933 16.24 37.32C16.8267 37.72 17.7467 38.0133 19 38.2V39C18.4667 38.9467 17.7733 38.92 16.92 38.92C16.0667 38.8933 15.2667 38.88 14.52 38.88C13.9333 38.88 13.3333 38.8933 12.72 38.92C12.1067 38.92 11.6 38.9467 11.2 39V38.2C12.0267 38.0133 12.64 37.7333 13.04 37.36C13.44 36.96 13.7067 36.3333 13.84 35.48C13.9733 34.6267 14.04 33.4533 14.04 31.96V14.92C14.04 13.9333 13.9733 13.2133 13.84 12.76C13.7067 12.28 13.4267 11.96 13 11.8C12.6 11.6133 12 11.5067 11.2 11.48V10.68C11.6 10.7067 12.1067 10.7333 12.72 10.76C13.3333 10.7867 13.9333 10.8 14.52 10.8C15.1867 10.8 15.84 10.7867 16.48 10.76C17.12 10.7333 17.6933 10.7067 18.2 10.68L34.56 27.96V18.52C34.56 16.7333 34.48 15.3733 34.32 14.44C34.1867 13.48 33.84 12.7867 33.28 12.36C32.72 11.9333 31.8 11.64 30.52 11.48V10.68C31.0533 10.7067 31.7467 10.7333 32.6 10.76C33.4533 10.7867 34.2533 10.8 35 10.8C35.6133 10.8 36.2133 10.7867 36.8 10.76C37.4133 10.7333 37.92 10.7067 38.32 10.68Z" fill="white"/>
<path d="M11.1404 10L36.2469 36.8058" stroke="black" stroke-width="2"/>
<line x1="22.7454" y1="18.1691" x2="9.88951" y2="4.60285" stroke="white" stroke-width="3.69"/>
<path d="M40.7828 45.2867L26.936 30.5" stroke="white" stroke-width="2.94"/>
<path d="M8.00004 25.1381L8.00003 26C8.00003 26 5.00004 26 1.17583 27.4065L-0.408919 28.5133L-0.355799 26.8257L-0.30268 25.1381L4.87541 25.1626L8.00004 25.1381Z" fill="white"/>
<path d="M42.4306 25.3709L42.4306 24.5089C42.4306 24.5089 45.4306 24.5089 49.2548 23.1024L50.8396 21.9957L50.7865 23.6833L50.7333 25.3709L45.5553 25.3464L42.4306 25.3709Z" fill="white"/>
</g>
</svg>
